<svg xmlns="http://www.w3.org/2000/svg" xmlns:xlink="http://www.w3.org/1999/xlink" width="500" zoomAndPan="magnify" viewBox="0 0 375 374.999991" height="500" preserveAspectRatio="xMidYMid meet" version="1.0"><defs><g/></defs><rect x="-37.5" width="450" fill="#ffffff" y="-37.499999" height="449.999989" fill-opacity="1"/><rect x="-37.5" width="450" fill="#ffffff" y="-37.499999" height="449.999989" fill-opacity="1"/><g fill="#000000" fill-opacity="1"><g transform="translate(130.371089, 174.749989)"><g><path d="M 5.484375 0.859375 C 5.4375 1.078125 5.40625 1.390625 5.40625 1.625 C 5.40625 1.984375 5.40625 1.984375 5.484375 1.703125 C 5.578125 1.53125 5.671875 1.171875 5.671875 0.9375 C 5.671875 0.453125 5.625 0.453125 5.484375 0.859375 Z M 6.296875 -3.28125 C 6.203125 -3.28125 6.171875 -2.96875 6.171875 -2.65625 C 6.171875 -2.109375 6.203125 -2.109375 6.296875 -2.46875 C 6.484375 -3.015625 6.484375 -3.28125 6.296875 -3.28125 Z M 6.484375 -3.59375 C 6.5625 -3.59375 6.609375 -3.78125 6.609375 -4.046875 C 6.609375 -4.3125 6.609375 -4.546875 6.5625 -4.546875 C 6.53125 -4.546875 6.484375 -4.3125 6.4375 -4.046875 C 6.390625 -3.78125 6.390625 -3.59375 6.484375 -3.59375 Z M 18.9375 -47.109375 C 18.765625 -47.203125 18.671875 -47.390625 18.671875 -47.46875 C 18.671875 -47.5625 18.453125 -47.796875 18.1875 -47.96875 C 17.734375 -48.234375 17.375 -48.28125 16.203125 -48.28125 C 14.890625 -48.28125 14.578125 -48.234375 13.59375 -47.75 C 13.453125 -47.65625 13.1875 -47.65625 12.953125 -47.703125 C 12.734375 -47.75 12.46875 -47.703125 12.328125 -47.609375 C 12.1875 -47.515625 11.65625 -47.0625 11.109375 -46.625 C 10.578125 -46.171875 10.03125 -45.671875 9.90625 -45.453125 C 9.578125 -45 9.3125 -43.875 9.046875 -42.296875 C 8.234375 -36.859375 8.1875 -36.625 7.921875 -35.734375 C 7.828125 -35.328125 7.734375 -34.96875 7.6875 -34.875 C 7.6875 -34.78125 7.5625 -34.296875 7.46875 -33.75 C 7.109375 -32 6.484375 -30.15625 5.71875 -28.53125 C 5.265625 -27.625 4.953125 -26.859375 4.953125 -26.78125 C 4.953125 -26.734375 4.6875 -26.328125 4.3125 -25.875 C 4 -25.421875 3.46875 -24.65625 3.15625 -24.171875 C 2.796875 -23.671875 2.46875 -23.265625 2.4375 -23.265625 C 2.34375 -23.265625 1.890625 -22.953125 1.4375 -22.546875 C 0.984375 -22.140625 0.3125 -21.734375 0 -21.640625 C -0.90625 -21.421875 -1.078125 -20.796875 -0.40625 -20.5625 C -0.21875 -20.46875 -0.140625 -20.296875 -0.140625 -20.03125 C -0.140625 -19.34375 0.8125 -18.578125 2.109375 -18.1875 C 2.46875 -18.046875 2.46875 -17.328125 2.15625 -16.15625 C 2.03125 -15.703125 1.796875 -14.890625 1.703125 -14.4375 C 1.625 -13.953125 1.390625 -13.1875 1.265625 -12.6875 C 0.9375 -11.65625 0.265625 -8.59375 0.09375 -7.734375 C -0.09375 -6.53125 -0.140625 -6.296875 -0.21875 -4.234375 C -0.3125 -2.296875 -0.3125 -2.03125 0.046875 -1.078125 C 0.625 0.625 0.90625 1.125 2.296875 2.46875 C 3.828125 3.921875 4.40625 4.359375 5.40625 4.71875 C 6.609375 5.125 7.328125 5.046875 8.015625 4.40625 C 8.59375 3.875 8.59375 3.875 8.421875 3.375 C 8.1875 2.875 7.375 1.984375 7.109375 1.984375 C 7.015625 1.984375 6.796875 2.0625 6.609375 2.203125 C 6.390625 2.390625 6.078125 2.46875 5.84375 2.4375 C 5.40625 2.390625 4.8125 1.3125 4.71875 0.265625 C 4.640625 -0.140625 4.546875 -0.546875 4.453125 -0.625 C 4.359375 -0.765625 4.359375 -0.984375 4.453125 -1.265625 C 4.59375 -1.53125 4.6875 -2.515625 4.71875 -3.46875 C 4.765625 -5.3125 4.8125 -5.71875 5.171875 -7.0625 C 5.3125 -7.515625 5.484375 -8.375 5.578125 -8.90625 C 5.671875 -9.453125 5.8125 -10.078125 5.890625 -10.265625 C 5.9375 -10.4375 6.03125 -10.703125 6.078125 -10.890625 C 6.203125 -11.296875 6.609375 -12.515625 6.84375 -12.921875 C 6.890625 -13.09375 6.96875 -13.765625 7.015625 -14.40625 C 7.0625 -15.03125 7.203125 -15.609375 7.296875 -15.75 C 7.46875 -15.96875 7.328125 -17.28125 7.109375 -17.28125 C 7.0625 -17.28125 6.96875 -17.421875 6.96875 -17.546875 C 6.96875 -17.859375 6.03125 -18.90625 5.40625 -19.3125 C 4.859375 -19.578125 4.8125 -19.75 5.21875 -19.9375 C 5.890625 -20.203125 6.53125 -20.703125 6.65625 -21.0625 C 7.296875 -22.359375 7.734375 -23.078125 8.375 -23.71875 C 8.6875 -24.03125 9.09375 -24.703125 9.3125 -25.15625 C 9.546875 -25.65625 9.765625 -26.09375 9.90625 -26.140625 C 9.984375 -26.234375 10.078125 -26.421875 10.078125 -26.546875 C 10.078125 -26.859375 10.625 -28.3125 10.9375 -29.03125 C 11.03125 -29.203125 11.0625 -29.4375 11.0625 -29.515625 C 11.03125 -29.609375 11.109375 -29.828125 11.203125 -30.0625 C 11.4375 -30.46875 11.875 -32.9375 11.921875 -33.84375 C 11.96875 -34.15625 12.0625 -34.5625 12.15625 -34.734375 C 12.375 -35.140625 12.515625 -36.21875 12.59375 -38.34375 C 12.640625 -39.28125 12.78125 -40.140625 12.828125 -40.28125 C 12.953125 -40.359375 13 -40.546875 12.953125 -40.6875 C 12.921875 -41.046875 13.140625 -42.203125 13.3125 -42.203125 C 13.40625 -42.203125 13.453125 -42.34375 13.453125 -42.484375 C 13.453125 -42.890625 15.203125 -44.546875 15.609375 -44.546875 C 15.75 -44.546875 15.96875 -44.734375 16.109375 -44.90625 C 16.25 -45.09375 16.421875 -45.21875 16.515625 -45.21875 C 16.5625 -45.21875 16.96875 -45.40625 17.328125 -45.671875 C 17.734375 -45.9375 18.046875 -46.171875 18.140625 -46.171875 C 18.21875 -46.171875 18.5 -46.34375 18.71875 -46.578125 C 19.125 -46.9375 19.171875 -46.984375 18.9375 -47.109375 Z M 2.203125 -21.5625 C 1.625 -21.15625 1.3125 -21.0625 1.390625 -21.28125 C 1.53125 -21.59375 2.5625 -22.1875 2.5625 -21.953125 C 2.5625 -21.875 2.4375 -21.640625 2.203125 -21.5625 Z M 5.171875 -25.515625 C 5.078125 -25.46875 4.90625 -25.15625 4.765625 -24.890625 C 4.640625 -24.609375 4.5 -24.390625 4.40625 -24.390625 C 4.359375 -24.390625 4.3125 -24.296875 4.3125 -24.203125 C 4.3125 -24.078125 4.1875 -23.890625 4.046875 -23.765625 C 3.953125 -23.625 3.640625 -23.3125 3.46875 -23.046875 C 3.15625 -22.6875 3.0625 -22.640625 3.0625 -22.8125 C 3.0625 -23.171875 3.640625 -24.171875 3.921875 -24.25 C 4.046875 -24.34375 4.140625 -24.4375 4.140625 -24.53125 C 4.140625 -24.609375 4.28125 -24.84375 4.453125 -24.96875 C 4.640625 -25.15625 4.8125 -25.421875 4.90625 -25.5625 C 5 -25.734375 5.125 -25.828125 5.171875 -25.734375 C 5.265625 -25.6875 5.265625 -25.5625 5.171875 -25.515625 Z M 5.171875 -25.515625 "/></g></g></g><g fill="#000000" fill-opacity="1"><g transform="translate(147.336073, 174.749989)"><g><path d="M 5.484375 0.859375 C 5.4375 1.078125 5.40625 1.390625 5.40625 1.625 C 5.40625 1.984375 5.40625 1.984375 5.484375 1.703125 C 5.578125 1.53125 5.671875 1.171875 5.671875 0.9375 C 5.671875 0.453125 5.625 0.453125 5.484375 0.859375 Z M 6.296875 -3.28125 C 6.203125 -3.28125 6.171875 -2.96875 6.171875 -2.65625 C 6.171875 -2.109375 6.203125 -2.109375 6.296875 -2.46875 C 6.484375 -3.015625 6.484375 -3.28125 6.296875 -3.28125 Z M 6.484375 -3.59375 C 6.5625 -3.59375 6.609375 -3.78125 6.609375 -4.046875 C 6.609375 -4.3125 6.609375 -4.546875 6.5625 -4.546875 C 6.53125 -4.546875 6.484375 -4.3125 6.4375 -4.046875 C 6.390625 -3.78125 6.390625 -3.59375 6.484375 -3.59375 Z M 18.9375 -47.109375 C 18.765625 -47.203125 18.671875 -47.390625 18.671875 -47.46875 C 18.671875 -47.5625 18.453125 -47.796875 18.1875 -47.96875 C 17.734375 -48.234375 17.375 -48.28125 16.203125 -48.28125 C 14.890625 -48.28125 14.578125 -48.234375 13.59375 -47.75 C 13.453125 -47.65625 13.1875 -47.65625 12.953125 -47.703125 C 12.734375 -47.75 12.46875 -47.703125 12.328125 -47.609375 C 12.1875 -47.515625 11.65625 -47.0625 11.109375 -46.625 C 10.578125 -46.171875 10.03125 -45.671875 9.90625 -45.453125 C 9.578125 -45 9.3125 -43.875 9.046875 -42.296875 C 8.234375 -36.859375 8.1875 -36.625 7.921875 -35.734375 C 7.828125 -35.328125 7.734375 -34.96875 7.6875 -34.875 C 7.6875 -34.78125 7.5625 -34.296875 7.46875 -33.75 C 7.109375 -32 6.484375 -30.15625 5.71875 -28.53125 C 5.265625 -27.625 4.953125 -26.859375 4.953125 -26.78125 C 4.953125 -26.734375 4.6875 -26.328125 4.3125 -25.875 C 4 -25.421875 3.46875 -24.65625 3.15625 -24.171875 C 2.796875 -23.671875 2.46875 -23.265625 2.4375 -23.265625 C 2.34375 -23.265625 1.890625 -22.953125 1.4375 -22.546875 C 0.984375 -22.140625 0.3125 -21.734375 0 -21.640625 C -0.90625 -21.421875 -1.078125 -20.796875 -0.40625 -20.5625 C -0.21875 -20.46875 -0.140625 -20.296875 -0.140625 -20.03125 C -0.140625 -19.34375 0.8125 -18.578125 2.109375 -18.1875 C 2.46875 -18.046875 2.46875 -17.328125 2.15625 -16.15625 C 2.03125 -15.703125 1.796875 -14.890625 1.703125 -14.4375 C 1.625 -13.953125 1.390625 -13.1875 1.265625 -12.6875 C 0.9375 -11.65625 0.265625 -8.59375 0.09375 -7.734375 C -0.09375 -6.53125 -0.140625 -6.296875 -0.21875 -4.234375 C -0.3125 -2.296875 -0.3125 -2.03125 0.046875 -1.078125 C 0.625 0.625 0.90625 1.125 2.296875 2.46875 C 3.828125 3.921875 4.40625 4.359375 5.40625 4.71875 C 6.609375 5.125 7.328125 5.046875 8.015625 4.40625 C 8.59375 3.875 8.59375 3.875 8.421875 3.375 C 8.1875 2.875 7.375 1.984375 7.109375 1.984375 C 7.015625 1.984375 6.796875 2.0625 6.609375 2.203125 C 6.390625 2.390625 6.078125 2.46875 5.84375 2.4375 C 5.40625 2.390625 4.8125 1.3125 4.71875 0.265625 C 4.640625 -0.140625 4.546875 -0.546875 4.453125 -0.625 C 4.359375 -0.765625 4.359375 -0.984375 4.453125 -1.265625 C 4.59375 -1.53125 4.6875 -2.515625 4.71875 -3.46875 C 4.765625 -5.3125 4.8125 -5.71875 5.171875 -7.0625 C 5.3125 -7.515625 5.484375 -8.375 5.578125 -8.90625 C 5.671875 -9.453125 5.8125 -10.078125 5.890625 -10.265625 C 5.9375 -10.4375 6.03125 -10.703125 6.078125 -10.890625 C 6.203125 -11.296875 6.609375 -12.515625 6.84375 -12.921875 C 6.890625 -13.09375 6.96875 -13.765625 7.015625 -14.40625 C 7.0625 -15.03125 7.203125 -15.609375 7.296875 -15.75 C 7.46875 -15.96875 7.328125 -17.28125 7.109375 -17.28125 C 7.0625 -17.28125 6.96875 -17.421875 6.96875 -17.546875 C 6.96875 -17.859375 6.03125 -18.90625 5.40625 -19.3125 C 4.859375 -19.578125 4.8125 -19.75 5.21875 -19.9375 C 5.890625 -20.203125 6.53125 -20.703125 6.65625 -21.0625 C 7.296875 -22.359375 7.734375 -23.078125 8.375 -23.71875 C 8.6875 -24.03125 9.09375 -24.703125 9.3125 -25.15625 C 9.546875 -25.65625 9.765625 -26.09375 9.90625 -26.140625 C 9.984375 -26.234375 10.078125 -26.421875 10.078125 -26.546875 C 10.078125 -26.859375 10.625 -28.3125 10.9375 -29.03125 C 11.03125 -29.203125 11.0625 -29.4375 11.0625 -29.515625 C 11.03125 -29.609375 11.109375 -29.828125 11.203125 -30.0625 C 11.4375 -30.46875 11.875 -32.9375 11.921875 -33.84375 C 11.96875 -34.15625 12.0625 -34.5625 12.15625 -34.734375 C 12.375 -35.140625 12.515625 -36.21875 12.59375 -38.34375 C 12.640625 -39.28125 12.78125 -40.140625 12.828125 -40.28125 C 12.953125 -40.359375 13 -40.546875 12.953125 -40.6875 C 12.921875 -41.046875 13.140625 -42.203125 13.3125 -42.203125 C 13.40625 -42.203125 13.453125 -42.34375 13.453125 -42.484375 C 13.453125 -42.890625 15.203125 -44.546875 15.609375 -44.546875 C 15.75 -44.546875 15.96875 -44.734375 16.109375 -44.90625 C 16.25 -45.09375 16.421875 -45.21875 16.515625 -45.21875 C 16.5625 -45.21875 16.96875 -45.40625 17.328125 -45.671875 C 17.734375 -45.9375 18.046875 -46.171875 18.140625 -46.171875 C 18.21875 -46.171875 18.5 -46.34375 18.71875 -46.578125 C 19.125 -46.9375 19.171875 -46.984375 18.9375 -47.109375 Z M 2.203125 -21.5625 C 1.625 -21.15625 1.3125 -21.0625 1.390625 -21.28125 C 1.53125 -21.59375 2.5625 -22.1875 2.5625 -21.953125 C 2.5625 -21.875 2.4375 -21.640625 2.203125 -21.5625 Z M 5.171875 -25.515625 C 5.078125 -25.46875 4.90625 -25.15625 4.765625 -24.890625 C 4.640625 -24.609375 4.5 -24.390625 4.40625 -24.390625 C 4.359375 -24.390625 4.3125 -24.296875 4.3125 -24.203125 C 4.3125 -24.078125 4.1875 -23.890625 4.046875 -23.765625 C 3.953125 -23.625 3.640625 -23.3125 3.46875 -23.046875 C 3.15625 -22.6875 3.0625 -22.640625 3.0625 -22.8125 C 3.0625 -23.171875 3.640625 -24.171875 3.921875 -24.25 C 4.046875 -24.34375 4.140625 -24.4375 4.140625 -24.53125 C 4.140625 -24.609375 4.28125 -24.84375 4.453125 -24.96875 C 4.640625 -25.15625 4.8125 -25.421875 4.90625 -25.5625 C 5 -25.734375 5.125 -25.828125 5.171875 -25.734375 C 5.265625 -25.6875 5.265625 -25.5625 5.171875 -25.515625 Z M 5.171875 -25.515625 "/></g></g></g><g fill="#000000" fill-opacity="1"><g transform="translate(164.301057, 174.749989)"><g><path d="M 45.453125 -40.140625 C 45.5 -40.640625 45.140625 -41.265625 44.421875 -41.984375 C 44.140625 -42.25 43.921875 -42.53125 43.921875 -42.609375 C 43.921875 -42.703125 43.734375 -42.890625 43.5625 -43.0625 C 41.125 -45.1875 40.640625 -45.546875 40.3125 -45.578125 C 40.09375 -45.578125 39.828125 -45.625 39.6875 -45.71875 C 39.15625 -45.984375 37.75 -46.4375 37.390625 -46.4375 C 37.21875 -46.4375 36.9375 -46.53125 36.859375 -46.578125 C 36.671875 -46.75 36.546875 -46.796875 34.5625 -47.03125 C 33.25 -47.15625 31.59375 -47.0625 29.25 -46.625 C 28.9375 -46.578125 28.890625 -46.578125 29.0625 -46.703125 C 29.46875 -46.9375 29.03125 -46.890625 27.765625 -46.578125 C 21.734375 -44.953125 14.671875 -41.171875 9.578125 -36.90625 C 8.375 -35.859375 6.4375 -34.0625 5.40625 -32.890625 C 4.140625 -31.546875 2.390625 -29.390625 2.203125 -28.984375 C 2.109375 -28.796875 1.984375 -28.578125 1.890625 -28.53125 C 1.703125 -28.390625 0.265625 -26.015625 0.09375 -25.515625 C 0 -25.25 -0.09375 -24.5625 -0.09375 -23.984375 C -0.09375 -22.640625 0.359375 -21.78125 1.703125 -20.5625 C 2.4375 -19.890625 2.921875 -19.578125 3.875 -19.21875 C 4.953125 -18.8125 5.21875 -18.765625 6.84375 -18.765625 C 7.78125 -18.765625 8.6875 -18.8125 8.8125 -18.90625 C 9 -18.984375 9.453125 -19.171875 9.859375 -19.34375 L 10.671875 -19.625 L 10.53125 -20.296875 C 10.484375 -20.703125 10.4375 -21.15625 10.4375 -21.28125 C 10.390625 -21.46875 10.171875 -21.78125 9.9375 -22.09375 L 9.546875 -22.59375 L 8.953125 -22.046875 C 8.375 -21.46875 8.328125 -21.46875 5.984375 -21.515625 C 4.859375 -21.515625 3.234375 -21.734375 3.109375 -21.828125 C 2.921875 -22 2.96875 -22.8125 3.1875 -23.40625 C 3.375 -23.8125 3.46875 -24.078125 3.421875 -24.078125 C 3.375 -24.078125 3.59375 -24.53125 3.921875 -25.0625 C 4.234375 -25.609375 4.6875 -26.28125 4.859375 -26.640625 C 5.046875 -26.953125 5.578125 -27.625 6.03125 -28.21875 C 6.484375 -28.75 7.0625 -29.515625 7.328125 -29.875 C 7.609375 -30.28125 7.875 -30.59375 7.96875 -30.59375 C 8.015625 -30.59375 8.09375 -30.640625 8.09375 -30.78125 C 8.09375 -30.875 8.28125 -31.140625 8.5 -31.3125 C 8.78125 -31.546875 9.21875 -32 9.578125 -32.40625 C 10.3125 -33.203125 11.921875 -34.6875 12.28125 -34.875 C 12.375 -34.921875 12.828125 -35.28125 13.234375 -35.640625 C 14.53125 -36.71875 15.890625 -37.703125 16.78125 -38.203125 C 17.28125 -38.4375 17.78125 -38.796875 17.953125 -38.921875 C 18.09375 -39.109375 18.3125 -39.234375 18.453125 -39.234375 C 18.546875 -39.234375 18.671875 -39.28125 18.671875 -39.328125 C 18.671875 -39.46875 19.578125 -39.953125 19.84375 -39.953125 C 19.9375 -39.953125 20.15625 -40.046875 20.296875 -40.234375 C 20.5625 -40.453125 22.5 -41.40625 23.8125 -41.890625 C 24.078125 -41.984375 24.796875 -42.296875 25.46875 -42.5625 C 27.265625 -43.375 29.96875 -44.1875 31.453125 -44.375 C 31.859375 -44.421875 32.40625 -44.5 32.71875 -44.546875 C 33.4375 -44.734375 35.6875 -44.734375 36.9375 -44.546875 C 38.296875 -44.375 40.40625 -43.6875 40.71875 -43.421875 C 40.859375 -43.296875 41.171875 -43.0625 41.40625 -42.9375 C 42.390625 -42.34375 42.75 -39.28125 42.078125 -37.34375 C 41.4375 -35.59375 40.453125 -33.9375 38.609375 -31.71875 C 36.8125 -29.515625 34.203125 -27.046875 30.515625 -24.03125 C 28.171875 -22.140625 23.484375 -19.171875 22.8125 -19.171875 C 22.546875 -19.171875 22.453125 -19.625 22.6875 -19.671875 C 22.8125 -19.703125 22.90625 -19.9375 22.90625 -20.15625 C 22.90625 -20.390625 22.953125 -20.65625 23.046875 -20.703125 C 23.21875 -20.828125 23.671875 -22.71875 23.578125 -22.90625 C 23.578125 -23 23.625 -23.078125 23.71875 -23.078125 C 23.8125 -23.078125 23.84375 -23.125 23.84375 -23.171875 C 23.84375 -23.265625 23.84375 -23.4375 23.84375 -23.578125 C 23.84375 -23.84375 23.890625 -23.84375 24.03125 -23.671875 C 24.171875 -23.484375 24.203125 -23.53125 24.125 -23.8125 C 24.078125 -23.984375 24.125 -24.25 24.203125 -24.34375 C 24.34375 -24.484375 24.34375 -24.5625 24.203125 -24.65625 C 24.03125 -24.75 24.171875 -25.375 24.390625 -25.375 C 24.484375 -25.375 24.484375 -25.46875 24.4375 -25.609375 C 24.390625 -25.734375 24.484375 -25.875 24.65625 -25.96875 C 24.796875 -26.0625 24.96875 -26.28125 25.0625 -26.5 C 25.109375 -26.734375 25.296875 -27.1875 25.46875 -27.5 C 25.609375 -27.859375 25.78125 -28.171875 25.78125 -28.265625 C 25.78125 -28.484375 26.421875 -30.1875 26.546875 -30.375 C 26.640625 -30.421875 26.734375 -30.640625 26.78125 -30.875 C 27.046875 -31.6875 28.03125 -33.5625 28.484375 -34.203125 C 28.625 -34.421875 28.84375 -34.828125 28.9375 -35.0625 C 29.03125 -35.328125 29.203125 -35.640625 29.34375 -35.78125 C 29.4375 -35.90625 29.515625 -36.265625 29.515625 -36.671875 C 29.46875 -37.21875 29.515625 -37.4375 29.75 -37.578125 C 30.015625 -37.75 30.15625 -38.203125 29.875 -38.203125 C 29.796875 -38.203125 29.703125 -38.390625 29.65625 -38.5625 C 29.5625 -38.796875 29.296875 -38.96875 28.484375 -39.28125 C 27.453125 -39.640625 27.359375 -39.640625 26.734375 -39.46875 C 26.375 -39.328125 25.96875 -39.15625 25.828125 -38.96875 C 25.734375 -38.828125 25.328125 -38.4375 24.96875 -38.0625 C 24.609375 -37.703125 24.34375 -37.390625 24.34375 -37.3125 C 24.34375 -37.21875 23.984375 -36.5 23.484375 -35.640625 C 23.046875 -34.78125 22.359375 -33.4375 22.046875 -32.578125 C 20.75 -29.203125 20.515625 -28.578125 20.203125 -27.859375 C 20.03125 -27.40625 19.75 -26.90625 19.671875 -26.78125 C 19.53125 -26.59375 19.4375 -26.328125 19.4375 -26.09375 C 19.4375 -25.875 19.390625 -25.65625 19.3125 -25.609375 C 19.21875 -25.5625 19.125 -25.375 19.171875 -25.296875 C 19.171875 -25.109375 19.171875 -24.9375 19.125 -24.84375 C 19.03125 -24.703125 18.90625 -24.203125 18.765625 -23.71875 C 18.578125 -23.265625 18.40625 -22.71875 18.3125 -22.59375 C 18.265625 -22.40625 18.046875 -21.78125 17.859375 -21.1875 C 17.6875 -20.609375 17.328125 -19.265625 17.015625 -18.1875 C 16.6875 -17.09375 16.328125 -15.75 16.203125 -15.171875 C 16.0625 -14.578125 15.84375 -13.6875 15.75 -13.140625 C 15.609375 -12.640625 15.484375 -11.828125 15.4375 -11.34375 C 15.390625 -10.890625 15.34375 -10.390625 15.296875 -10.265625 C 15.125 -9.859375 15.03125 -9 14.9375 -7.78125 C 14.890625 -7.109375 14.84375 -6.203125 14.8125 -5.8125 C 14.4375 -2.25 14.578125 -0.546875 15.25 0.5 C 15.53125 0.984375 15.9375 1.171875 15.75 0.71875 C 15.5625 0.3125 15.5625 0.1875 15.84375 0.1875 C 15.9375 0.1875 16.203125 0.5 16.421875 0.90625 C 16.609375 1.265625 16.828125 1.53125 16.921875 1.484375 C 17.015625 1.4375 17.234375 1.53125 17.421875 1.703125 C 17.734375 2.03125 18.453125 2.0625 18.546875 1.796875 C 18.625 1.671875 18.671875 1.671875 18.765625 1.796875 C 18.984375 2.0625 19.265625 1.484375 19.171875 0.984375 C 19.03125 -0.09375 19.171875 -3.640625 19.34375 -3.78125 C 19.390625 -3.828125 19.484375 -4.5 19.53125 -5.3125 C 19.578125 -6.078125 19.625 -6.84375 19.671875 -6.9375 C 19.703125 -7.0625 19.9375 -8.1875 20.15625 -9.453125 C 20.4375 -10.75 20.65625 -11.875 20.75 -12.015625 C 20.828125 -12.15625 20.828125 -12.328125 20.796875 -12.421875 C 20.75 -12.46875 20.796875 -12.59375 20.875 -12.640625 C 20.96875 -12.6875 21.015625 -12.953125 21.015625 -13.234375 C 21.015625 -13.640625 21.734375 -16.421875 21.921875 -16.5625 C 21.921875 -16.609375 22.234375 -16.46875 22.546875 -16.328125 C 23.625 -15.84375 25.15625 -15.703125 25.921875 -16.0625 C 26.859375 -16.515625 27.40625 -16.828125 27.671875 -17.0625 C 27.859375 -17.1875 28.125 -17.328125 28.3125 -17.328125 C 28.796875 -17.328125 29.5625 -17.8125 30.921875 -18.984375 C 31.1875 -19.21875 31.40625 -19.390625 31.453125 -19.390625 C 31.765625 -19.4375 33.03125 -20.390625 34.296875 -21.515625 C 34.6875 -21.875 35.28125 -22.359375 35.640625 -22.640625 C 36 -22.953125 36.40625 -23.3125 36.546875 -23.578125 C 36.71875 -23.765625 36.90625 -23.9375 36.984375 -23.9375 C 37.171875 -23.9375 38.828125 -25.515625 39.515625 -26.28125 C 40 -26.859375 40.765625 -27.546875 40.90625 -27.546875 C 40.953125 -27.546875 41.171875 -27.859375 41.359375 -28.21875 C 41.578125 -28.578125 41.84375 -28.9375 42.03125 -29.03125 C 42.203125 -29.0625 42.34375 -29.25 42.296875 -29.34375 C 42.25 -29.4375 42.53125 -29.75 42.890625 -30.0625 C 43.6875 -30.875 45.453125 -34.15625 45.625 -35.28125 C 45.765625 -36.21875 45.671875 -39.375 45.5 -39.59375 C 45.453125 -39.6875 45.40625 -39.921875 45.453125 -40.140625 Z M 4.359375 -30.78125 C 4.28125 -30.59375 4.046875 -30.375 3.921875 -30.234375 C 3.78125 -30.0625 3.6875 -29.96875 3.6875 -30.0625 C 3.640625 -30.1875 4.359375 -31.140625 4.5 -31.140625 C 4.6875 -31.140625 4.640625 -31.046875 4.359375 -30.78125 Z M 5.21875 -31.859375 L 4.90625 -31.5 L 5.078125 -31.8125 C 5.265625 -32.125 5.578125 -32.40625 5.578125 -32.21875 C 5.578125 -32.171875 5.40625 -32 5.21875 -31.859375 Z M 5.765625 -32.53125 C 5.53125 -32.4375 5.53125 -32.484375 5.671875 -32.625 C 5.8125 -32.71875 5.890625 -32.765625 5.984375 -32.71875 C 6.03125 -32.671875 5.890625 -32.578125 5.765625 -32.53125 Z M 6.203125 -32.890625 C 5.984375 -32.890625 5.984375 -32.984375 6.203125 -33.125 C 6.296875 -33.171875 6.34375 -33.125 6.34375 -33.03125 C 6.34375 -32.9375 6.296875 -32.890625 6.203125 -32.890625 Z M 28.34375 -46.53125 C 28.390625 -46.578125 28.53125 -46.578125 28.625 -46.53125 C 28.75 -46.484375 28.703125 -46.4375 28.53125 -46.4375 C 28.390625 -46.4375 28.265625 -46.484375 28.34375 -46.53125 Z M 26.59375 -46.078125 C 26.640625 -46.125 26.78125 -46.125 26.90625 -46.078125 C 27.046875 -46.03125 27 -46.03125 26.8125 -46.03125 C 26.640625 -46.03125 26.546875 -46.03125 26.59375 -46.078125 Z M 25.515625 -45.71875 C 25.6875 -45.765625 25.96875 -45.859375 26.0625 -45.859375 C 26.234375 -45.859375 26.1875 -45.765625 26.015625 -45.71875 C 25.828125 -45.625 25.5625 -45.578125 25.46875 -45.578125 C 25.296875 -45.578125 25.328125 -45.625 25.515625 -45.71875 Z M 24.9375 -45.5 C 25.0625 -45.546875 25.109375 -45.5 25.0625 -45.40625 C 25.015625 -45.359375 24.890625 -45.265625 24.796875 -45.265625 C 24.5625 -45.265625 24.609375 -45.40625 24.9375 -45.5 Z M 24.03125 -45.140625 C 24.171875 -45.21875 24.34375 -45.265625 24.4375 -45.265625 C 24.53125 -45.265625 24.484375 -45.21875 24.34375 -45.140625 C 24.203125 -45.046875 24.03125 -45 23.9375 -45 C 23.84375 -45 23.890625 -45.046875 24.03125 -45.140625 Z M 22.765625 -44.6875 C 23.078125 -44.859375 23.40625 -44.953125 23.484375 -44.953125 C 23.578125 -44.953125 23.40625 -44.859375 23.078125 -44.6875 C 22.765625 -44.546875 22.453125 -44.421875 22.359375 -44.421875 C 22.28125 -44.421875 22.453125 -44.546875 22.765625 -44.6875 Z M 19.9375 -43.375 C 20.0625 -43.46875 20.25 -43.5625 20.296875 -43.5625 C 20.4375 -43.5625 20.390625 -43.46875 20.25 -43.375 C 20.109375 -43.328125 19.9375 -43.296875 19.84375 -43.296875 C 19.75 -43.296875 19.796875 -43.328125 19.9375 -43.375 Z M 17.09375 -41.8125 C 17.546875 -42.078125 17.859375 -42.171875 17.734375 -42.078125 C 17.546875 -41.84375 16.296875 -41.171875 16.296875 -41.3125 C 16.296875 -41.3125 16.65625 -41.578125 17.09375 -41.8125 Z M 14.8125 -40.453125 C 14.9375 -40.5 14.984375 -40.453125 14.9375 -40.359375 C 14.890625 -40.28125 14.8125 -40.234375 14.71875 -40.234375 C 14.484375 -40.234375 14.53125 -40.3125 14.8125 -40.453125 Z M 10.4375 -36.71875 C 10.703125 -36.9375 10.9375 -37.21875 10.9375 -37.3125 C 10.9375 -37.390625 11.0625 -37.484375 11.25 -37.53125 C 11.4375 -37.578125 11.515625 -37.671875 11.46875 -37.75 C 11.4375 -37.890625 11.515625 -37.9375 11.703125 -37.9375 C 11.828125 -37.9375 12.15625 -38.0625 12.375 -38.25 C 12.78125 -38.609375 13.453125 -38.96875 13.640625 -39.015625 C 13.765625 -39.015625 14.359375 -39.46875 14.765625 -39.921875 C 14.890625 -40.046875 15.125 -40.28125 15.25 -40.359375 C 15.390625 -40.453125 15.484375 -40.59375 15.4375 -40.6875 C 15.390625 -40.71875 15.484375 -40.765625 15.65625 -40.71875 C 15.796875 -40.6875 15.96875 -40.71875 16.0625 -40.8125 C 16.109375 -40.90625 16.0625 -40.953125 15.890625 -40.953125 C 15.609375 -40.953125 15.609375 -41 15.84375 -41.078125 C 15.96875 -41.171875 16.0625 -41.171875 16.109375 -41.078125 C 16.203125 -40.90625 16.421875 -40.90625 16.875 -41.21875 C 17.140625 -41.359375 17.734375 -41.765625 18.265625 -42.078125 C 19.390625 -42.75 22.546875 -44.1875 24.03125 -44.734375 C 24.5625 -44.953125 25.5625 -45.265625 26.140625 -45.5 C 27.765625 -46.078125 30.421875 -46.578125 32.171875 -46.625 C 34.015625 -46.703125 33.703125 -46.53125 31.765625 -46.34375 C 30.1875 -46.265625 29.515625 -46.125 27.453125 -45.5 C 25.609375 -44.953125 24.203125 -44.375 24.03125 -44.09375 C 23.9375 -43.96875 23.84375 -43.96875 23.84375 -44.09375 C 23.84375 -44.328125 23 -44.015625 21.6875 -43.375 C 21.15625 -43.109375 20.5625 -42.796875 20.390625 -42.75 C 19.984375 -42.609375 18.671875 -41.9375 17.953125 -41.4375 C 17.6875 -41.265625 17.421875 -41.078125 17.328125 -41.078125 C 17.1875 -41.078125 15.171875 -39.875 14.8125 -39.515625 C 14.625 -39.375 14.40625 -39.234375 14.3125 -39.234375 C 14.171875 -39.234375 14.046875 -39.15625 14 -39.0625 C 13.90625 -38.96875 13.6875 -38.75 13.453125 -38.609375 C 13.234375 -38.46875 12.921875 -38.296875 12.734375 -38.109375 C 12.375 -37.890625 11.703125 -37.390625 11.34375 -37.171875 C 11.203125 -37.078125 11.25 -37.03125 11.390625 -36.9375 C 11.515625 -36.859375 11.4375 -36.71875 11.0625 -36.40625 C 10.84375 -36.1875 10.625 -36.09375 10.625 -36.140625 C 10.625 -36.21875 10.796875 -36.40625 10.984375 -36.546875 C 11.15625 -36.625 11.296875 -36.8125 11.203125 -36.859375 C 11.109375 -36.90625 10.890625 -36.8125 10.625 -36.578125 C 10.34375 -36.359375 10.125 -36.1875 10.078125 -36.21875 C 10.03125 -36.265625 10.21875 -36.5 10.4375 -36.71875 Z M 18.71875 -41.40625 C 18 -40.90625 17.859375 -40.859375 17.859375 -41.078125 C 17.859375 -41.171875 17.953125 -41.265625 18 -41.265625 C 18.09375 -41.265625 18.265625 -41.3125 18.40625 -41.4375 C 18.5 -41.578125 18.859375 -41.765625 19.171875 -41.890625 C 19.75 -42.171875 19.671875 -42.078125 18.71875 -41.40625 Z M 17.09375 -40.546875 C 17.09375 -40.5 16.828125 -40.3125 16.5625 -40.1875 C 15.84375 -39.78125 15.703125 -39.734375 15.9375 -39.953125 C 16.203125 -40.234375 17.09375 -40.71875 17.09375 -40.546875 Z M 14.53125 -38.875 C 14.53125 -38.828125 14.484375 -38.796875 14.40625 -38.703125 C 14.3125 -38.703125 14.21875 -38.703125 14.21875 -38.796875 C 14.21875 -38.875 14.3125 -38.921875 14.40625 -38.921875 C 14.484375 -38.921875 14.53125 -38.921875 14.53125 -38.875 Z M 7.921875 -33.53125 C 7.375 -32.9375 6.9375 -32.4375 6.890625 -32.4375 C 6.75 -32.4375 6.84375 -32.71875 6.96875 -32.8125 C 7.25 -32.9375 7.15625 -33.203125 6.9375 -33.125 C 6.75 -33.078125 6.65625 -33.078125 6.65625 -33.171875 C 6.65625 -33.34375 7.109375 -33.484375 7.203125 -33.25 C 7.203125 -33.171875 7.421875 -33.296875 7.6875 -33.5625 C 7.96875 -33.84375 8.234375 -34.15625 8.375 -34.296875 C 8.5 -34.375 8.546875 -34.515625 8.5 -34.5625 C 8.421875 -34.65625 8.234375 -34.46875 8.015625 -34.25 C 7.78125 -34.015625 7.609375 -33.890625 7.609375 -34.015625 C 7.609375 -34.109375 7.921875 -34.515625 8.328125 -34.828125 C 8.734375 -35.234375 9.046875 -35.59375 9.046875 -35.6875 C 9.046875 -35.8125 9.1875 -35.859375 9.359375 -35.8125 C 9.671875 -35.734375 9.765625 -35.5 9.5 -35.5 C 9.21875 -35.5 8.5 -34.6875 8.6875 -34.65625 C 8.78125 -34.609375 8.421875 -34.109375 7.921875 -33.53125 Z M 9.046875 -32.984375 C 8.859375 -32.84375 8.6875 -32.71875 8.640625 -32.71875 C 8.59375 -32.71875 8.640625 -32.84375 8.734375 -32.984375 C 8.953125 -33.34375 10.03125 -34.0625 10.125 -33.96875 C 10.21875 -33.890625 10.078125 -33.75 9.046875 -32.984375 Z M 35.78125 -45.3125 C 32.40625 -45.359375 28.84375 -44.640625 25.5625 -43.296875 C 25.015625 -43.0625 24.296875 -42.796875 24.03125 -42.703125 C 23.71875 -42.609375 23.078125 -42.34375 22.6875 -42.078125 C 22.234375 -41.84375 21.59375 -41.53125 21.234375 -41.359375 C 20.5625 -41.078125 20.5625 -41.078125 18.71875 -39.953125 C 17.953125 -39.515625 17.140625 -39.015625 16.828125 -38.875 C 16.515625 -38.703125 15.890625 -38.25 15.390625 -37.9375 C 12.15625 -35.546875 11.4375 -35.0625 11.03125 -34.609375 C 10.578125 -34.203125 10.3125 -34.0625 10.3125 -34.296875 C 10.3125 -34.375 10.390625 -34.46875 10.53125 -34.515625 C 10.671875 -34.5625 10.796875 -34.6875 10.796875 -34.828125 C 10.796875 -34.921875 10.890625 -35.0625 11.0625 -35.09375 C 11.25 -35.140625 11.703125 -35.5 12.15625 -35.859375 C 12.921875 -36.546875 14.171875 -37.4375 15.171875 -38.0625 C 15.484375 -38.25 16.0625 -38.65625 16.375 -38.875 C 16.734375 -39.15625 17.234375 -39.46875 17.546875 -39.59375 C 17.859375 -39.734375 18.359375 -40.046875 18.671875 -40.28125 C 19.671875 -41.046875 23.40625 -42.796875 26.78125 -44.140625 C 27.3125 -44.328125 29.75 -44.953125 30.640625 -45.140625 C 31.140625 -45.21875 31.90625 -45.359375 32.359375 -45.40625 C 33.34375 -45.578125 36.40625 -45.578125 36.9375 -45.40625 C 37.21875 -45.359375 36.8125 -45.3125 35.78125 -45.3125 Z M 23.765625 -30.515625 C 23.9375 -30.921875 24.078125 -30.921875 23.9375 -30.46875 C 23.84375 -30.28125 23.765625 -30.15625 23.71875 -30.15625 C 23.625 -30.15625 23.625 -30.328125 23.765625 -30.515625 Z M 22.59375 -26.1875 C 22.40625 -26.453125 22.40625 -26.453125 22.28125 -26.1875 C 22.1875 -25.828125 22.28125 -25.515625 22.453125 -25.609375 C 22.546875 -25.65625 22.640625 -25.65625 22.640625 -25.5625 C 22.640625 -25.46875 22.546875 -25.375 22.453125 -25.328125 C 22.359375 -25.296875 22.28125 -25.328125 22.28125 -25.421875 C 22.28125 -25.5625 22.28125 -25.5625 22.140625 -25.421875 C 21.875 -25.015625 21.828125 -25.65625 22.09375 -26.1875 C 22.40625 -26.6875 22.40625 -26.734375 22.59375 -26.421875 C 22.8125 -26.0625 22.8125 -25.828125 22.59375 -26.1875 Z M 21.953125 -24.890625 C 21.953125 -24.75 21.875 -24.65625 21.734375 -24.65625 C 21.421875 -24.65625 21.421875 -24.890625 21.734375 -25.015625 C 21.875 -25.0625 21.953125 -25.015625 21.953125 -24.890625 Z M 22.640625 -26.90625 C 22.5 -26.859375 22.453125 -26.859375 22.453125 -26.953125 C 22.453125 -27.046875 22.5 -27.140625 22.640625 -27.1875 C 22.6875 -27.21875 22.765625 -27.21875 22.765625 -27.140625 C 22.765625 -27.046875 22.6875 -26.953125 22.640625 -26.90625 Z M 23.078125 -26.8125 C 22.90625 -26.546875 22.90625 -26.78125 23.078125 -27.1875 C 23.171875 -27.40625 23.21875 -27.40625 23.21875 -27.265625 C 23.21875 -27.140625 23.171875 -26.953125 23.078125 -26.8125 Z M 23.265625 -28.796875 C 23.171875 -28.53125 23.046875 -28.171875 23 -27.984375 C 22.90625 -27.546875 22.640625 -27.265625 22.640625 -27.578125 C 22.640625 -27.71875 22.6875 -27.859375 22.765625 -27.859375 C 22.859375 -27.859375 22.90625 -27.90625 22.859375 -27.984375 C 22.765625 -28.125 23.21875 -29.46875 23.359375 -29.390625 C 23.40625 -29.34375 23.359375 -29.0625 23.265625 -28.796875 Z M 23.484375 -29.703125 C 23.4375 -29.5625 23.40625 -29.609375 23.40625 -29.796875 C 23.40625 -29.921875 23.4375 -30.015625 23.484375 -29.96875 C 23.53125 -29.921875 23.53125 -29.796875 23.484375 -29.703125 Z M 18.453125 -21.828125 C 18.5 -21.734375 18.5 -21.5625 18.453125 -21.46875 C 18.40625 -21.375 18.359375 -21.46875 18.359375 -21.640625 C 18.359375 -21.828125 18.40625 -21.921875 18.453125 -21.828125 Z M 18.1875 -20.828125 C 18.265625 -20.921875 18.3125 -20.828125 18.265625 -20.703125 C 18.140625 -20.46875 18.046875 -20.4375 18.046875 -20.609375 C 18.046875 -20.703125 18.09375 -20.796875 18.1875 -20.828125 Z M 17.859375 -19.890625 C 17.953125 -19.890625 18.046875 -19.84375 18.046875 -19.75 C 18.046875 -19.671875 17.953125 -19.625 17.859375 -19.625 C 17.78125 -19.625 17.734375 -19.671875 17.734375 -19.75 C 17.734375 -19.84375 17.78125 -19.890625 17.859375 -19.890625 Z M 17.453125 -18.578125 C 17.5 -18.90625 17.640625 -19.171875 17.734375 -19.265625 C 17.859375 -19.34375 17.859375 -19.265625 17.78125 -18.984375 C 17.59375 -18.3125 17.375 -18 17.453125 -18.578125 Z M 17.0625 -17.1875 C 17.09375 -17.328125 17.140625 -17.453125 17.1875 -17.453125 C 17.1875 -17.453125 17.234375 -17.328125 17.234375 -17.1875 C 17.234375 -17.015625 17.1875 -16.875 17.09375 -16.875 C 17.015625 -16.875 17.015625 -17.015625 17.0625 -17.1875 Z M 16.734375 -15.703125 C 16.828125 -15.703125 16.875 -15.65625 16.828125 -15.53125 C 16.78125 -15.390625 16.6875 -15.296875 16.6875 -15.296875 C 16.65625 -15.296875 16.609375 -15.390625 16.609375 -15.53125 C 16.609375 -15.65625 16.6875 -15.703125 16.734375 -15.703125 Z M 16.375 -14.484375 C 16.421875 -14.625 16.515625 -14.71875 16.609375 -14.671875 C 16.65625 -14.625 16.609375 -14.484375 16.46875 -14.40625 C 16.328125 -14.265625 16.296875 -14.265625 16.375 -14.484375 Z M 15.96875 -12.109375 C 16.0625 -12.109375 16.109375 -12.0625 16.0625 -11.921875 C 15.96875 -11.796875 15.9375 -11.703125 15.890625 -11.703125 C 15.84375 -11.703125 15.84375 -11.796875 15.84375 -11.921875 C 15.84375 -12.0625 15.890625 -12.109375 15.96875 -12.109375 Z M 16.203125 -2.34375 C 16.203125 -2.203125 16.203125 -1.703125 16.15625 -1.21875 C 16.15625 -0.71875 16.0625 -0.3125 15.96875 -0.3125 C 15.75 -0.3125 15.5625 -1.390625 15.609375 -2.921875 C 15.65625 -4.40625 15.703125 -4.6875 15.84375 -5.078125 C 15.9375 -5.265625 16.328125 -8.09375 16.5625 -9.671875 C 16.6875 -11.03125 16.96875 -12.515625 17.09375 -12.875 C 17.1875 -13.046875 17.328125 -13.546875 17.421875 -13.90625 C 17.453125 -14.3125 17.640625 -15.171875 17.859375 -15.796875 C 18.359375 -17.640625 18.8125 -19.390625 18.8125 -19.625 C 18.8125 -19.75 18.859375 -20.0625 18.9375 -20.296875 C 19.03125 -20.5625 19.078125 -20.796875 18.984375 -20.796875 C 18.9375 -20.796875 18.984375 -20.828125 19.078125 -20.875 C 19.390625 -21.109375 20.25 -23.40625 20.15625 -23.765625 C 20.109375 -23.9375 20.15625 -24.078125 20.203125 -24.078125 C 20.296875 -24.078125 20.34375 -24.296875 20.34375 -24.5625 C 20.34375 -25.0625 20.796875 -26.09375 21.0625 -26.09375 C 21.15625 -26.09375 21.15625 -26.234375 21.109375 -26.421875 C 21.0625 -26.546875 21.109375 -26.6875 21.1875 -26.734375 C 21.375 -26.859375 21.6875 -27.546875 22.046875 -28.578125 C 22.234375 -29.03125 22.40625 -29.5625 22.546875 -29.796875 C 22.640625 -30.015625 22.765625 -30.421875 22.859375 -30.734375 C 22.953125 -31.1875 23.359375 -31.6875 23.484375 -31.546875 C 23.53125 -31.5 23.484375 -31.28125 23.359375 -31.046875 C 23.078125 -30.59375 22.859375 -29.828125 22.90625 -29.65625 C 22.90625 -29.609375 22.859375 -29.46875 22.765625 -29.390625 C 22.71875 -29.296875 22.453125 -28.671875 22.234375 -27.984375 C 22 -27.3125 21.640625 -26.328125 21.421875 -25.828125 C 20.296875 -23.046875 18.765625 -18.140625 18.265625 -15.796875 C 18.09375 -15.171875 17.953125 -14.40625 17.859375 -14.078125 C 17.59375 -13.140625 17.09375 -10.75 17.015625 -9.984375 C 16.96875 -9.625 16.828125 -8.59375 16.6875 -7.734375 C 16.46875 -6.296875 16.15625 -2.796875 16.203125 -2.34375 Z M 20.390625 -19.03125 C 20.5625 -18.9375 20.5625 -18.90625 20.203125 -18.90625 C 19.890625 -18.90625 19.75 -18.9375 19.796875 -19.078125 C 19.84375 -19.171875 19.9375 -19.390625 19.984375 -19.578125 C 20.0625 -19.75 20.0625 -19.75 19.890625 -19.53125 C 19.671875 -19.078125 19.390625 -19.125 19.625 -19.578125 C 19.890625 -20.03125 20.296875 -20.03125 20.203125 -19.53125 C 20.15625 -19.3125 20.203125 -19.125 20.390625 -19.03125 Z M 19.4375 -18.046875 C 19.265625 -18.046875 19.21875 -18.5 19.390625 -18.625 C 19.4375 -18.71875 19.578125 -18.671875 19.671875 -18.578125 C 19.796875 -18.453125 19.84375 -18.265625 19.703125 -17.859375 C 19.625 -17.546875 19.390625 -17.140625 19.171875 -16.921875 C 18.859375 -16.609375 18.8125 -16.609375 18.90625 -16.875 C 18.9375 -17.0625 19.03125 -17.28125 19.078125 -17.453125 C 19.125 -17.640625 19.265625 -17.78125 19.390625 -17.78125 C 19.484375 -17.78125 19.625 -17.8125 19.625 -17.90625 C 19.625 -17.953125 19.53125 -18.046875 19.4375 -18.046875 Z M 18.546875 -15.03125 C 18.71875 -15.03125 18.8125 -14.9375 18.8125 -14.84375 C 18.8125 -14.671875 18.8125 -14.671875 18.5 -14.84375 C 18.3125 -14.984375 18.3125 -14.984375 18.546875 -15.03125 Z M 18.5 -14.3125 C 18.5 -14 18.40625 -13.640625 18.265625 -13.5 C 18.046875 -13.234375 18 -13.234375 18.140625 -13.765625 C 18.265625 -14.625 18.5 -14.9375 18.5 -14.3125 Z M 18.765625 -15.171875 C 18.578125 -15.171875 18.5 -15.25 18.5 -15.390625 C 18.5 -15.484375 18.578125 -15.53125 18.765625 -15.484375 C 18.859375 -15.484375 18.984375 -15.34375 18.984375 -15.296875 C 18.984375 -15.203125 18.859375 -15.171875 18.765625 -15.171875 Z M 16.828125 -3.5625 C 16.78125 -3.234375 16.734375 -2.65625 16.734375 -2.25 C 16.78125 -1.84375 16.6875 -1.34375 16.65625 -1.125 C 16.15625 0.265625 16.65625 -5.484375 17.453125 -10.75 C 17.59375 -11.609375 17.734375 -12.421875 17.734375 -12.515625 C 17.734375 -12.59375 17.8125 -12.6875 17.953125 -12.6875 C 18.1875 -12.6875 18.1875 -12.59375 18.140625 -12.328125 C 17.6875 -10.390625 17.1875 -7.328125 17.015625 -4.90625 C 16.96875 -4.5 16.875 -3.875 16.828125 -3.5625 Z M 17.6875 -6.4375 C 17.640625 -6.390625 17.546875 -6.484375 17.546875 -6.65625 C 17.546875 -6.96875 17.640625 -7.015625 17.78125 -6.75 C 17.8125 -6.609375 17.8125 -6.484375 17.6875 -6.4375 Z M 17.453125 -3.421875 C 17.421875 -3.1875 17.328125 -3.0625 17.28125 -3.0625 C 17.28125 -3.0625 17.234375 -3.1875 17.234375 -3.421875 C 17.234375 -3.59375 17.28125 -3.78125 17.375 -3.78125 C 17.453125 -3.78125 17.5 -3.59375 17.453125 -3.421875 Z M 17.859375 -3.46875 C 17.6875 -3.46875 17.6875 -3.734375 17.859375 -3.828125 C 17.953125 -3.921875 18.046875 -3.828125 18.046875 -3.734375 C 18.046875 -3.59375 17.953125 -3.46875 17.859375 -3.46875 Z M 17.734375 -4.5 C 17.328125 -4.5 17.328125 -4.59375 17.734375 -4.6875 C 17.90625 -4.71875 18.046875 -4.6875 18.046875 -4.640625 C 18.046875 -4.546875 17.90625 -4.5 17.734375 -4.5 Z M 17.953125 -8.90625 C 18 -8.859375 18.046875 -8.734375 18 -8.640625 C 17.953125 -8.546875 17.90625 -8.546875 17.90625 -8.734375 C 17.859375 -8.90625 17.90625 -8.953125 17.953125 -8.90625 Z M 18.046875 -9.1875 C 17.953125 -9.140625 17.859375 -9.1875 17.859375 -9.3125 C 17.859375 -9.578125 17.953125 -9.578125 18.09375 -9.40625 C 18.140625 -9.3125 18.140625 -9.21875 18.046875 -9.1875 Z M 18.140625 -9.71875 C 18.09375 -9.71875 18.046875 -9.90625 18.046875 -10.21875 C 18.046875 -10.796875 18.21875 -10.75 18.265625 -10.171875 C 18.265625 -9.984375 18.21875 -9.765625 18.140625 -9.71875 Z M 18.359375 -10.890625 C 18.1875 -10.796875 18.1875 -11.03125 18.359375 -11.5625 C 18.453125 -11.875 18.5 -11.875 18.5 -11.46875 C 18.5 -11.203125 18.453125 -10.984375 18.359375 -10.890625 Z M 18.90625 -12.921875 C 18.90625 -12.734375 18.859375 -12.5625 18.8125 -12.5625 C 18.71875 -12.5625 18.625 -12.421875 18.625 -12.234375 C 18.578125 -11.96875 18.546875 -11.96875 18.5 -12.328125 C 18.40625 -12.640625 18.453125 -12.828125 18.671875 -13.046875 C 18.9375 -13.3125 18.9375 -13.3125 18.90625 -12.921875 Z M 19.125 -13.8125 C 19.078125 -13.71875 18.9375 -13.640625 18.859375 -13.59375 C 18.71875 -13.59375 18.71875 -13.640625 18.765625 -13.765625 C 18.859375 -14.046875 19.21875 -14.078125 19.125 -13.8125 Z M 19.125 -14.359375 C 19.03125 -14.3125 18.984375 -14.359375 18.984375 -14.4375 C 18.984375 -14.484375 19.03125 -14.578125 19.125 -14.578125 C 19.21875 -14.578125 19.3125 -14.53125 19.3125 -14.53125 C 19.3125 -14.484375 19.21875 -14.40625 19.125 -14.359375 Z M 19.671875 -10.703125 C 19.625 -10.53125 19.578125 -10.390625 19.484375 -10.390625 C 19.484375 -10.390625 19.4375 -10.53125 19.4375 -10.703125 C 19.4375 -10.84375 19.53125 -10.984375 19.625 -10.984375 C 19.671875 -10.984375 19.703125 -10.84375 19.671875 -10.703125 Z M 19.671875 -16.78125 C 19.4375 -16.78125 19.34375 -16.6875 19.3125 -16.515625 C 19.3125 -16.296875 19.34375 -16.15625 19.4375 -16.15625 C 19.53125 -16.15625 19.625 -16.109375 19.625 -16.015625 C 19.625 -15.890625 19.53125 -15.890625 19.34375 -16.015625 C 19.171875 -16.15625 19.125 -16.15625 19.125 -15.890625 C 19.125 -15.609375 18.984375 -15.484375 18.765625 -15.703125 C 18.71875 -15.75 18.671875 -15.84375 18.671875 -15.9375 C 18.671875 -16.015625 18.71875 -16.015625 18.8125 -15.890625 C 18.90625 -15.75 18.984375 -15.890625 19.03125 -16.296875 C 19.125 -16.65625 19.265625 -16.96875 19.4375 -17.015625 C 19.578125 -17.0625 19.75 -17.140625 19.796875 -17.234375 C 19.84375 -17.328125 19.9375 -17.234375 19.9375 -17.0625 C 19.9375 -16.828125 19.84375 -16.734375 19.671875 -16.78125 Z M 19.984375 -12.1875 C 19.890625 -11.96875 19.75 -11.921875 19.75 -12.109375 C 19.75 -12.1875 19.84375 -12.28125 19.9375 -12.328125 C 20.03125 -12.375 20.03125 -12.328125 19.984375 -12.1875 Z M 19.984375 -17.453125 C 19.9375 -17.453125 19.9375 -17.546875 19.9375 -17.6875 C 19.9375 -17.8125 20.03125 -17.90625 20.15625 -17.90625 C 20.390625 -17.90625 20.4375 -17.859375 20.25 -17.6875 C 20.109375 -17.546875 20.03125 -17.453125 19.984375 -17.453125 Z M 20.390625 -16.296875 C 20.296875 -16.296875 20.25 -16.375 20.25 -16.46875 C 20.25 -16.515625 20.296875 -16.609375 20.390625 -16.609375 C 20.46875 -16.609375 20.5625 -16.515625 20.5625 -16.46875 C 20.5625 -16.375 20.46875 -16.296875 20.390625 -16.296875 Z M 20.96875 -20.34375 C 20.921875 -20.15625 20.828125 -19.984375 20.703125 -19.9375 C 20.609375 -19.890625 20.5625 -19.9375 20.609375 -20.03125 C 20.703125 -20.109375 20.609375 -20.296875 20.515625 -20.4375 C 20.34375 -20.515625 20.203125 -20.5625 20.15625 -20.515625 C 20.109375 -20.4375 20.15625 -20.34375 20.296875 -20.296875 C 20.390625 -20.25 20.4375 -20.203125 20.390625 -20.15625 C 20.34375 -20.109375 20.15625 -20.109375 20.03125 -20.15625 C 19.84375 -20.203125 19.84375 -20.25 20.03125 -20.609375 C 20.15625 -20.828125 20.25 -21.0625 20.25 -21.1875 C 20.25 -21.375 20.515625 -21.421875 20.65625 -21.1875 C 20.703125 -21.15625 20.65625 -21.0625 20.515625 -21.0625 C 20.390625 -21.0625 20.390625 -21.015625 20.515625 -20.96875 C 20.609375 -20.921875 20.65625 -20.796875 20.609375 -20.703125 C 20.5625 -20.5625 20.609375 -20.515625 20.75 -20.5625 C 20.921875 -20.609375 20.96875 -20.5625 20.96875 -20.34375 Z M 21.1875 -21.515625 C 21.109375 -21.515625 21.0625 -21.59375 21.109375 -21.734375 C 21.15625 -21.875 21.109375 -21.875 21.015625 -21.6875 C 20.796875 -21.375 20.75 -21.375 20.5625 -21.5625 C 20.4375 -21.6875 20.4375 -21.78125 20.515625 -21.78125 C 20.609375 -21.78125 20.65625 -21.875 20.609375 -22 C 20.5625 -22.140625 20.609375 -22.234375 20.703125 -22.234375 C 20.796875 -22.234375 20.828125 -22.3125 20.828125 -22.453125 C 20.828125 -22.59375 20.921875 -23.046875 21.015625 -23.359375 C 21.1875 -23.890625 21.234375 -23.984375 21.328125 -23.71875 C 21.421875 -23.578125 21.421875 -23.046875 21.421875 -22.59375 C 21.375 -21.515625 21.375 -21.515625 21.1875 -21.515625 Z M 21.59375 -16.734375 C 21.46875 -16.734375 21.328125 -16.78125 21.328125 -16.875 C 21.328125 -16.96875 21.421875 -17.0625 21.515625 -17.0625 C 21.5625 -17.0625 21.6875 -16.96875 21.734375 -16.875 C 21.78125 -16.78125 21.734375 -16.734375 21.59375 -16.734375 Z M 21.734375 -23.9375 C 21.6875 -24.03125 21.734375 -24.125 21.875 -24.171875 C 21.953125 -24.203125 21.921875 -24.203125 21.6875 -24.171875 C 21.421875 -24.078125 21.328125 -24.125 21.328125 -24.34375 C 21.328125 -24.484375 21.421875 -24.53125 21.640625 -24.484375 C 21.875 -24.4375 22 -24.53125 22.140625 -24.796875 C 22.359375 -25.296875 22.5 -25.0625 22.3125 -24.484375 C 22.09375 -23.890625 21.921875 -23.71875 21.734375 -23.9375 Z M 34.734375 -23.046875 C 34.515625 -22.765625 34.296875 -22.6875 34.296875 -22.765625 C 34.296875 -22.8125 34.515625 -23.046875 34.734375 -23.21875 C 35.015625 -23.40625 35.234375 -23.484375 35.234375 -23.484375 C 35.234375 -23.4375 35.015625 -23.265625 34.734375 -23.046875 Z M 35.421875 -25.328125 C 34.65625 -24.609375 33.890625 -23.890625 33.703125 -23.8125 C 33.53125 -23.671875 33.03125 -23.3125 32.578125 -22.953125 C 32.171875 -22.59375 31.3125 -21.921875 30.734375 -21.46875 C 30.15625 -21.015625 29.4375 -20.515625 29.25 -20.34375 C 28.21875 -19.53125 25.734375 -18 24.96875 -17.640625 C 24.484375 -17.421875 23.8125 -17.234375 23.359375 -17.234375 C 22.953125 -17.234375 22.546875 -17.140625 22.453125 -17.09375 C 22.40625 -17.0625 22.28125 -17.0625 22.234375 -17.140625 C 21.953125 -17.375 22.1875 -17.59375 22.8125 -17.734375 C 23.4375 -17.859375 23.4375 -17.859375 22.859375 -17.8125 C 22.546875 -17.78125 22.28125 -17.78125 22.28125 -17.8125 C 22.28125 -18.09375 22.6875 -18.5 22.90625 -18.5 C 23.046875 -18.5 23.3125 -18.578125 23.4375 -18.671875 C 23.625 -18.8125 23.890625 -18.90625 24.078125 -18.90625 C 24.203125 -18.90625 24.34375 -18.9375 24.34375 -19.03125 C 24.34375 -19.078125 24.65625 -19.3125 25.0625 -19.53125 C 25.421875 -19.75 25.96875 -20.109375 26.234375 -20.34375 C 26.5 -20.515625 26.953125 -20.875 27.3125 -21.109375 C 27.625 -21.328125 28.265625 -21.78125 28.75 -22.09375 C 29.203125 -22.453125 29.703125 -22.765625 29.828125 -22.859375 C 30.46875 -23.21875 31.234375 -23.890625 31.1875 -24.078125 C 31.140625 -24.171875 31.1875 -24.203125 31.3125 -24.171875 C 31.453125 -24.125 31.765625 -24.296875 32.078125 -24.5625 C 36.5 -28.34375 37.125 -29.03125 40.3125 -33.25 C 41.078125 -34.203125 41.40625 -34.15625 40.71875 -33.203125 C 40.453125 -32.84375 40.09375 -32.359375 39.953125 -32.125 C 39.78125 -31.90625 39.59375 -31.640625 39.5625 -31.40625 C 39.46875 -31.09375 37.265625 -28.265625 36.453125 -27.453125 C 34.96875 -25.921875 32.578125 -23.765625 31.5 -22.90625 C 30.734375 -22.3125 29.921875 -21.6875 29.65625 -21.421875 C 29.34375 -21.1875 28.890625 -20.828125 28.625 -20.65625 C 28.34375 -20.4375 28.125 -20.203125 28.125 -20.15625 C 28.125 -20.0625 29.109375 -20.703125 29.46875 -21.015625 C 29.5625 -21.109375 30.234375 -21.59375 30.953125 -22.1875 C 32.890625 -23.671875 36.9375 -27.3125 37.890625 -28.484375 C 38.109375 -28.75 38.828125 -29.65625 39.515625 -30.421875 C 40.140625 -31.234375 40.71875 -31.859375 40.8125 -31.859375 C 40.90625 -31.859375 40.8125 -31.6875 40.6875 -31.5 C 40 -30.515625 37.75 -27.71875 37.265625 -27.21875 C 36.9375 -26.953125 36.140625 -26.09375 35.421875 -25.328125 Z M 37.390625 -25.5625 C 37.21875 -25.25 36.9375 -25.15625 36.9375 -25.375 C 36.9375 -25.421875 37.125 -25.5625 37.3125 -25.65625 C 37.578125 -25.828125 37.625 -25.828125 37.390625 -25.5625 Z M 41.4375 -30.0625 C 41.171875 -29.796875 40.953125 -29.5625 41.046875 -29.5625 C 41.078125 -29.5625 41.046875 -29.46875 40.953125 -29.390625 C 40.8125 -29.296875 40.8125 -29.15625 40.859375 -29.109375 C 40.90625 -29.0625 40.6875 -28.796875 40.40625 -28.53125 C 40.09375 -28.265625 39.6875 -27.765625 39.421875 -27.453125 C 39.1875 -27.09375 38.921875 -26.8125 38.828125 -26.8125 C 38.75 -26.8125 38.515625 -26.6875 38.34375 -26.453125 C 38.0625 -26.140625 37.75 -26.015625 37.75 -26.1875 C 37.75 -26.234375 38.109375 -26.640625 38.515625 -27 C 39.46875 -27.90625 39.921875 -28.4375 41.078125 -29.96875 C 41.53125 -30.59375 41.984375 -31.140625 42.078125 -31.140625 C 42.34375 -31.140625 41.984375 -30.515625 41.4375 -30.0625 Z M 27.90625 -20.0625 C 27.625 -20.0625 26.734375 -19.484375 26.734375 -19.34375 C 26.734375 -19.265625 26.78125 -19.171875 26.8125 -19.21875 C 27 -19.21875 28.078125 -20.0625 27.90625 -20.0625 Z M 24.84375 -18.140625 C 24.84375 -18.09375 24.890625 -18.046875 24.96875 -18.046875 C 25.0625 -18.046875 25.109375 -18.09375 25.109375 -18.140625 C 25.109375 -18.21875 25.375 -18.359375 25.6875 -18.5 C 26.28125 -18.671875 26.6875 -18.984375 26.5 -19.125 C 26.421875 -19.21875 24.84375 -18.3125 24.84375 -18.140625 Z M 24.390625 -17.859375 C 24.203125 -17.90625 23.8125 -17.78125 23.53125 -17.59375 C 23.078125 -17.328125 23.078125 -17.328125 23.40625 -17.421875 C 23.625 -17.453125 24.03125 -17.59375 24.25 -17.6875 C 24.65625 -17.859375 24.703125 -17.859375 24.390625 -17.859375 Z M 24.390625 -17.859375 "/></g></g></g><g fill="#000000" fill-opacity="1"><g transform="translate(206.73601, 174.749989)"><g><path d="M 12.734375 -44.140625 C 12.828125 -44.375 12.875 -44.734375 12.875 -44.953125 C 12.875 -45.3125 12.875 -45.3125 12.734375 -45.046875 C 12.6875 -44.8125 12.59375 -44.5 12.59375 -44.234375 C 12.59375 -43.78125 12.640625 -43.78125 12.734375 -44.140625 Z M 11.96875 -40.046875 C 12.0625 -40.046875 12.109375 -40.3125 12.109375 -40.640625 C 12.109375 -41.171875 12.0625 -41.171875 11.96875 -40.8125 C 11.796875 -40.28125 11.796875 -40.046875 11.96875 -40.046875 Z M 11.796875 -39.734375 C 11.703125 -39.734375 11.65625 -39.515625 11.65625 -39.28125 C 11.65625 -39.015625 11.65625 -38.796875 11.703125 -38.796875 C 11.75 -38.796875 11.796875 -39.015625 11.828125 -39.28125 C 11.875 -39.515625 11.828125 -39.734375 11.796875 -39.734375 Z M -0.671875 3.828125 C -0.5 3.921875 -0.40625 4.046875 -0.40625 4.1875 C -0.40625 4.28125 -0.1875 4.5 0.09375 4.6875 C 0.546875 4.90625 0.90625 4.953125 2.0625 4.953125 C 3.375 4.953125 3.640625 4.90625 4.640625 4.40625 C 4.8125 4.359375 5.078125 4.3125 5.3125 4.359375 C 5.53125 4.40625 5.8125 4.359375 5.9375 4.28125 C 6.078125 4.1875 6.609375 3.78125 7.15625 3.328125 C 7.6875 2.875 8.234375 2.34375 8.375 2.109375 C 8.640625 1.703125 8.953125 0.546875 9.21875 -1.03125 C 10.03125 -6.4375 10.078125 -6.65625 10.3125 -7.5625 C 10.4375 -7.96875 10.53125 -8.375 10.578125 -8.453125 C 10.578125 -8.5 10.671875 -9 10.796875 -9.546875 C 11.15625 -11.34375 11.796875 -13.1875 12.5625 -14.8125 C 12.953125 -15.65625 13.3125 -16.421875 13.3125 -16.515625 C 13.3125 -16.609375 13.59375 -17.015625 13.953125 -17.453125 C 14.21875 -17.859375 14.765625 -18.625 15.125 -19.125 C 15.484375 -19.625 15.796875 -20.03125 15.84375 -20.03125 C 15.9375 -20.03125 16.375 -20.34375 16.828125 -20.75 C 17.28125 -21.15625 17.953125 -21.5625 18.265625 -21.640625 C 19.171875 -21.921875 19.34375 -22.5 18.625 -22.765625 C 18.5 -22.8125 18.40625 -23.046875 18.40625 -23.265625 C 18.40625 -23.9375 17.453125 -24.703125 16.15625 -25.15625 C 15.796875 -25.296875 15.796875 -25.96875 16.109375 -27.140625 C 16.25 -27.625 16.421875 -28.390625 16.5625 -28.890625 C 16.65625 -29.34375 16.875 -30.15625 17.015625 -30.59375 C 17.28125 -31.6875 18 -34.6875 18.140625 -35.59375 C 18.359375 -36.8125 18.40625 -37.03125 18.5 -39.109375 C 18.578125 -41 18.546875 -41.265625 18.21875 -42.25 C 17.640625 -43.96875 17.375 -44.421875 15.96875 -45.765625 C 14.4375 -47.25 13.859375 -47.65625 12.875 -48.015625 C 11.609375 -48.421875 10.9375 -48.375 10.265625 -47.75 C 9.671875 -47.203125 9.671875 -47.15625 9.859375 -46.671875 C 10.078125 -46.171875 10.890625 -45.265625 11.15625 -45.265625 C 11.203125 -45.265625 11.46875 -45.40625 11.65625 -45.546875 C 11.875 -45.671875 12.1875 -45.765625 12.421875 -45.71875 C 12.828125 -45.671875 13.40625 -44.59375 13.546875 -43.609375 C 13.640625 -43.203125 13.71875 -42.796875 13.8125 -42.65625 C 13.90625 -42.5625 13.90625 -42.296875 13.765625 -42.03125 C 13.6875 -41.8125 13.59375 -40.8125 13.546875 -39.875 C 13.5 -38.03125 13.453125 -37.578125 13.09375 -36.265625 C 12.953125 -35.8125 12.78125 -34.96875 12.6875 -34.375 C 12.59375 -33.84375 12.46875 -33.25 12.375 -33.078125 C 12.328125 -32.890625 12.234375 -32.578125 12.1875 -32.4375 C 12.0625 -32.046875 11.609375 -30.78125 11.4375 -30.375 C 11.390625 -30.1875 11.25 -29.5625 11.203125 -28.9375 C 11.203125 -28.3125 11.0625 -27.671875 10.984375 -27.578125 C 10.796875 -27.359375 10.9375 -26.0625 11.109375 -26.0625 C 11.203125 -26.0625 11.25 -25.921875 11.25 -25.734375 C 11.25 -25.421875 12.234375 -24.4375 12.875 -24.03125 C 13.40625 -23.71875 13.453125 -23.53125 13.046875 -23.40625 C 12.375 -23.078125 11.75 -22.640625 11.5625 -22.28125 C 10.984375 -20.96875 10.53125 -20.203125 9.90625 -19.625 C 9.578125 -19.265625 9.1875 -18.625 8.953125 -18.140625 C 8.734375 -17.6875 8.453125 -17.234375 8.375 -17.140625 C 8.28125 -17.09375 8.1875 -16.921875 8.1875 -16.734375 C 8.140625 -16.421875 7.65625 -15.03125 7.296875 -14.265625 C 7.203125 -14.078125 7.15625 -13.90625 7.203125 -13.8125 C 7.203125 -13.71875 7.15625 -13.453125 7.0625 -13.28125 C 6.84375 -12.828125 6.390625 -10.390625 6.296875 -9.453125 C 6.296875 -9.140625 6.203125 -8.78125 6.125 -8.59375 C 5.890625 -8.1875 5.765625 -7.109375 5.671875 -4.953125 C 5.625 -4 5.484375 -3.15625 5.40625 -3.0625 C 5.3125 -2.96875 5.265625 -2.75 5.3125 -2.65625 C 5.359375 -2.296875 5.078125 -1.078125 4.953125 -1.078125 C 4.859375 -1.078125 4.8125 -0.984375 4.8125 -0.8125 C 4.8125 -0.40625 3.0625 1.265625 2.65625 1.265625 C 2.515625 1.265625 2.296875 1.390625 2.15625 1.578125 C 2.03125 1.75 1.84375 1.890625 1.75 1.890625 C 1.703125 1.890625 1.3125 2.109375 0.9375 2.34375 C 0.546875 2.609375 0.1875 2.828125 0.140625 2.828125 C 0.046875 2.828125 -0.21875 3.015625 -0.453125 3.28125 C -0.859375 3.59375 -0.90625 3.6875 -0.671875 3.828125 Z M 16.0625 -21.78125 C 16.65625 -22.1875 16.96875 -22.28125 16.875 -22 C 16.734375 -21.6875 15.703125 -21.109375 15.703125 -21.375 C 15.703125 -21.46875 15.84375 -21.640625 16.0625 -21.78125 Z M 13.09375 -17.8125 C 13.1875 -17.859375 13.359375 -18.140625 13.5 -18.40625 C 13.640625 -18.71875 13.765625 -18.9375 13.8125 -18.9375 C 13.90625 -18.9375 13.953125 -19.03125 13.953125 -19.125 C 13.953125 -19.21875 14.078125 -19.390625 14.171875 -19.578125 C 14.3125 -19.703125 14.625 -20.03125 14.8125 -20.296875 C 15.125 -20.609375 15.203125 -20.703125 15.203125 -20.46875 C 15.203125 -20.109375 14.625 -19.171875 14.359375 -19.03125 C 14.21875 -18.984375 14.125 -18.859375 14.125 -18.765625 C 14.125 -18.71875 14 -18.5 13.8125 -18.3125 C 13.640625 -18.140625 13.453125 -17.90625 13.359375 -17.734375 C 13.28125 -17.546875 13.140625 -17.5 13.09375 -17.546875 C 13 -17.640625 13 -17.734375 13.09375 -17.8125 Z M 13.09375 -17.8125 "/></g></g></g><g fill="#000000" fill-opacity="1"><g transform="translate(225.680993, 174.749989)"><g><path d="M 12.734375 -44.140625 C 12.828125 -44.375 12.875 -44.734375 12.875 -44.953125 C 12.875 -45.3125 12.875 -45.3125 12.734375 -45.046875 C 12.6875 -44.8125 12.59375 -44.5 12.59375 -44.234375 C 12.59375 -43.78125 12.640625 -43.78125 12.734375 -44.140625 Z M 11.96875 -40.046875 C 12.0625 -40.046875 12.109375 -40.3125 12.109375 -40.640625 C 12.109375 -41.171875 12.0625 -41.171875 11.96875 -40.8125 C 11.796875 -40.28125 11.796875 -40.046875 11.96875 -40.046875 Z M 11.796875 -39.734375 C 11.703125 -39.734375 11.65625 -39.515625 11.65625 -39.28125 C 11.65625 -39.015625 11.65625 -38.796875 11.703125 -38.796875 C 11.75 -38.796875 11.796875 -39.015625 11.828125 -39.28125 C 11.875 -39.515625 11.828125 -39.734375 11.796875 -39.734375 Z M -0.671875 3.828125 C -0.5 3.921875 -0.40625 4.046875 -0.40625 4.1875 C -0.40625 4.28125 -0.1875 4.5 0.09375 4.6875 C 0.546875 4.90625 0.90625 4.953125 2.0625 4.953125 C 3.375 4.953125 3.640625 4.90625 4.640625 4.40625 C 4.8125 4.359375 5.078125 4.3125 5.3125 4.359375 C 5.53125 4.40625 5.8125 4.359375 5.9375 4.28125 C 6.078125 4.1875 6.609375 3.78125 7.15625 3.328125 C 7.6875 2.875 8.234375 2.34375 8.375 2.109375 C 8.640625 1.703125 8.953125 0.546875 9.21875 -1.03125 C 10.03125 -6.4375 10.078125 -6.65625 10.3125 -7.5625 C 10.4375 -7.96875 10.53125 -8.375 10.578125 -8.453125 C 10.578125 -8.5 10.671875 -9 10.796875 -9.546875 C 11.15625 -11.34375 11.796875 -13.1875 12.5625 -14.8125 C 12.953125 -15.65625 13.3125 -16.421875 13.3125 -16.515625 C 13.3125 -16.609375 13.59375 -17.015625 13.953125 -17.453125 C 14.21875 -17.859375 14.765625 -18.625 15.125 -19.125 C 15.484375 -19.625 15.796875 -20.03125 15.84375 -20.03125 C 15.9375 -20.03125 16.375 -20.34375 16.828125 -20.75 C 17.28125 -21.15625 17.953125 -21.5625 18.265625 -21.640625 C 19.171875 -21.921875 19.34375 -22.5 18.625 -22.765625 C 18.5 -22.8125 18.40625 -23.046875 18.40625 -23.265625 C 18.40625 -23.9375 17.453125 -24.703125 16.15625 -25.15625 C 15.796875 -25.296875 15.796875 -25.96875 16.109375 -27.140625 C 16.25 -27.625 16.421875 -28.390625 16.5625 -28.890625 C 16.65625 -29.34375 16.875 -30.15625 17.015625 -30.59375 C 17.28125 -31.6875 18 -34.6875 18.140625 -35.59375 C 18.359375 -36.8125 18.40625 -37.03125 18.5 -39.109375 C 18.578125 -41 18.546875 -41.265625 18.21875 -42.25 C 17.640625 -43.96875 17.375 -44.421875 15.96875 -45.765625 C 14.4375 -47.25 13.859375 -47.65625 12.875 -48.015625 C 11.609375 -48.421875 10.9375 -48.375 10.265625 -47.75 C 9.671875 -47.203125 9.671875 -47.15625 9.859375 -46.671875 C 10.078125 -46.171875 10.890625 -45.265625 11.15625 -45.265625 C 11.203125 -45.265625 11.46875 -45.40625 11.65625 -45.546875 C 11.875 -45.671875 12.1875 -45.765625 12.421875 -45.71875 C 12.828125 -45.671875 13.40625 -44.59375 13.546875 -43.609375 C 13.640625 -43.203125 13.71875 -42.796875 13.8125 -42.65625 C 13.90625 -42.5625 13.90625 -42.296875 13.765625 -42.03125 C 13.6875 -41.8125 13.59375 -40.8125 13.546875 -39.875 C 13.5 -38.03125 13.453125 -37.578125 13.09375 -36.265625 C 12.953125 -35.8125 12.78125 -34.96875 12.6875 -34.375 C 12.59375 -33.84375 12.46875 -33.25 12.375 -33.078125 C 12.328125 -32.890625 12.234375 -32.578125 12.1875 -32.4375 C 12.0625 -32.046875 11.609375 -30.78125 11.4375 -30.375 C 11.390625 -30.1875 11.25 -29.5625 11.203125 -28.9375 C 11.203125 -28.3125 11.0625 -27.671875 10.984375 -27.578125 C 10.796875 -27.359375 10.9375 -26.0625 11.109375 -26.0625 C 11.203125 -26.0625 11.25 -25.921875 11.25 -25.734375 C 11.25 -25.421875 12.234375 -24.4375 12.875 -24.03125 C 13.40625 -23.71875 13.453125 -23.53125 13.046875 -23.40625 C 12.375 -23.078125 11.75 -22.640625 11.5625 -22.28125 C 10.984375 -20.96875 10.53125 -20.203125 9.90625 -19.625 C 9.578125 -19.265625 9.1875 -18.625 8.953125 -18.140625 C 8.734375 -17.6875 8.453125 -17.234375 8.375 -17.140625 C 8.28125 -17.09375 8.1875 -16.921875 8.1875 -16.734375 C 8.140625 -16.421875 7.65625 -15.03125 7.296875 -14.265625 C 7.203125 -14.078125 7.15625 -13.90625 7.203125 -13.8125 C 7.203125 -13.71875 7.15625 -13.453125 7.0625 -13.28125 C 6.84375 -12.828125 6.390625 -10.390625 6.296875 -9.453125 C 6.296875 -9.140625 6.203125 -8.78125 6.125 -8.59375 C 5.890625 -8.1875 5.765625 -7.109375 5.671875 -4.953125 C 5.625 -4 5.484375 -3.15625 5.40625 -3.0625 C 5.3125 -2.96875 5.265625 -2.75 5.3125 -2.65625 C 5.359375 -2.296875 5.078125 -1.078125 4.953125 -1.078125 C 4.859375 -1.078125 4.8125 -0.984375 4.8125 -0.8125 C 4.8125 -0.40625 3.0625 1.265625 2.65625 1.265625 C 2.515625 1.265625 2.296875 1.390625 2.15625 1.578125 C 2.03125 1.75 1.84375 1.890625 1.75 1.890625 C 1.703125 1.890625 1.3125 2.109375 0.9375 2.34375 C 0.546875 2.609375 0.1875 2.828125 0.140625 2.828125 C 0.046875 2.828125 -0.21875 3.015625 -0.453125 3.28125 C -0.859375 3.59375 -0.90625 3.6875 -0.671875 3.828125 Z M 16.0625 -21.78125 C 16.65625 -22.1875 16.96875 -22.28125 16.875 -22 C 16.734375 -21.6875 15.703125 -21.109375 15.703125 -21.375 C 15.703125 -21.46875 15.84375 -21.640625 16.0625 -21.78125 Z M 13.09375 -17.8125 C 13.1875 -17.859375 13.359375 -18.140625 13.5 -18.40625 C 13.640625 -18.71875 13.765625 -18.9375 13.8125 -18.9375 C 13.90625 -18.9375 13.953125 -19.03125 13.953125 -19.125 C 13.953125 -19.21875 14.078125 -19.390625 14.171875 -19.578125 C 14.3125 -19.703125 14.625 -20.03125 14.8125 -20.296875 C 15.125 -20.609375 15.203125 -20.703125 15.203125 -20.46875 C 15.203125 -20.109375 14.625 -19.171875 14.359375 -19.03125 C 14.21875 -18.984375 14.125 -18.859375 14.125 -18.765625 C 14.125 -18.71875 14 -18.5 13.8125 -18.3125 C 13.640625 -18.140625 13.453125 -17.90625 13.359375 -17.734375 C 13.28125 -17.546875 13.140625 -17.5 13.09375 -17.546875 C 13 -17.640625 13 -17.734375 13.09375 -17.8125 Z M 13.09375 -17.8125 "/></g></g></g></svg>